<svg width="162" height="245" viewBox="0 0 162 245" fill="none" xmlns="http://www.w3.org/2000/svg">
<g clip-path="url(#clip0_13_240)">
<path d="M80.7592 16.2367C117.059 16.2367 146.76 45.9299 146.76 82.2226V158.911C146.76 195.203 117.061 224.897 80.7612 224.897C44.4612 224.897 14.7606 195.203 14.7606 158.911V82.2226C14.7606 45.9299 44.4591 16.2367 80.7592 16.2367Z" stroke="#CDA953" stroke-width="4.47987" stroke-miterlimit="22.9256"/>
<mask id="mask0_13_240" style="mask-type:luminance" maskUnits="userSpaceOnUse" x="84" y="73" width="61" height="47">
<path d="M90.0043 79.1161C92.6714 78.1703 95.3367 77.2238 98.4547 76.6527C101.571 76.0806 105.138 75.8812 108.608 75.9815C112.076 76.0807 115.444 76.4764 118.913 77.269C122.381 78.0616 125.949 79.251 128.625 80.4404C131.301 81.6287 133.085 82.8177 134.868 84.0061C137.642 80.6377 140.418 77.269 143.193 73.9003C143.589 88.96 143.986 104.02 144.382 119.08C141.805 119.08 139.229 119.08 136.652 119.08C136.057 114.72 135.463 110.361 134.175 106.3C132.886 102.237 130.905 98.4713 128.427 95.2032C125.95 91.9326 122.977 89.1584 120.003 87.3749C117.031 85.5913 114.057 84.7997 111.085 84.4029C108.113 84.0061 105.138 84.0061 102.463 84.5021C99.7877 84.9971 97.4095 85.9881 95.2297 87.0782C93.0489 88.1674 91.0668 89.3568 89.0845 90.5459C87.6964 87.1765 86.3093 83.8088 84.9226 80.4404C86.6158 79.9991 88.3111 79.5571 90.0043 79.1161Z" fill="white"/>
</mask>
<g mask="url(#mask0_13_240)">
<path fill-rule="evenodd" clip-rule="evenodd" d="M90.0043 79.1161C92.6714 78.1703 95.3367 77.2238 98.4547 76.6527C101.571 76.0806 105.138 75.8812 108.608 75.9815C112.076 76.0807 115.444 76.4764 118.913 77.269C122.381 78.0616 125.949 79.251 128.625 80.4404C131.301 81.6287 133.085 82.8177 134.868 84.0061C137.642 80.6377 140.418 77.269 143.193 73.9003C143.589 88.96 143.986 104.02 144.382 119.08C141.805 119.08 139.229 119.08 136.652 119.08C136.057 114.72 135.463 110.361 134.175 106.3C132.886 102.237 130.905 98.4713 128.427 95.2032C125.95 91.9326 122.977 89.1584 120.003 87.3749C117.031 85.5913 114.057 84.7997 111.085 84.4029C108.113 84.0061 105.138 84.0061 102.463 84.5021C99.7877 84.9971 97.4095 85.9881 95.2297 87.0782C93.0489 88.1674 91.0668 89.3568 89.0845 90.5459C87.6964 87.1765 86.3093 83.8088 84.9226 80.4404C86.6158 79.9991 88.3111 79.5571 90.0043 79.1161Z" fill="url(#paint0_linear_13_240)"/>
</g>
<mask id="mask1_13_240" style="mask-type:luminance" maskUnits="userSpaceOnUse" x="17" y="42" width="127" height="151">
<path d="M69.4632 42.393C71.8411 42.393 74.2194 42.393 76.5986 42.393C89.6797 78.26 102.76 114.127 109.895 132.853C117.03 151.578 118.22 153.163 119.607 154.452C120.994 155.739 122.58 156.73 124.066 157.424C125.553 158.117 126.94 158.514 127.931 158.712C128.922 158.911 129.517 158.911 130.112 158.911C130.309 160.892 130.508 162.873 130.706 164.854C115.643 164.854 100.58 164.854 85.5169 164.854C85.5169 162.675 85.5169 160.495 85.5169 158.316C87.3005 158.316 89.0844 158.316 91.0668 158.216C93.0482 158.117 95.2286 157.919 96.7159 157.225C98.2011 156.532 98.9949 155.343 98.7965 153.262C98.598 151.182 97.4084 148.209 92.057 133.644C86.7062 119.08 77.1929 92.9225 67.6793 66.7663C59.5527 87.5732 51.4272 108.38 46.8682 120.269C42.3105 132.158 41.3183 135.131 40.8232 137.311C40.3271 139.491 40.3271 140.877 40.6258 141.868C40.9224 142.859 41.5167 143.454 42.7063 144.049C43.8949 144.643 45.6789 145.237 47.3632 145.733C49.048 146.228 50.6345 146.625 51.9233 146.822C53.2112 147.02 54.202 147.02 55.1921 147.02C54.9947 142.265 54.7956 137.509 54.7956 132.852C54.7956 128.196 54.9947 123.638 55.589 119.873C56.1833 116.108 57.1745 113.135 57.8681 111.154C58.5626 109.172 58.9585 108.181 59.3553 107.191C64.9042 107.191 70.4541 107.191 76.0033 107.191C78.1838 112.344 80.3636 117.495 82.5444 122.647C82.5444 123.44 82.5444 124.233 82.5444 125.025C77.7879 125.025 73.0308 125.025 68.2736 125.025C68.2736 125.818 68.2736 126.61 69.067 128.393C69.8598 130.176 71.4442 132.952 72.4354 134.636C73.4266 136.321 73.8235 136.915 74.0209 138.599C74.2193 140.283 74.2194 143.058 74.7155 146.327C75.2106 149.596 76.2017 153.362 77.2921 156.632C78.3822 159.901 79.5718 162.675 81.4539 165.549C83.3371 168.421 85.9127 171.394 88.2917 173.773C90.6699 176.15 92.8507 177.933 95.2286 179.321C97.6078 180.707 100.184 181.698 102.561 182.292C104.941 182.887 107.12 183.085 109.499 183.085C111.878 183.085 114.453 182.887 117.328 182.292C120.202 181.698 123.373 180.707 126.147 179.321C128.922 177.933 131.301 176.15 133.58 173.673C135.859 171.196 138.039 168.026 139.725 165.053C141.409 162.08 142.598 159.307 143.786 156.532C143.589 160.892 143.391 165.251 142.896 169.314C142.399 173.376 141.607 177.14 138.138 180.509C134.67 183.878 128.526 186.85 123.174 188.831C117.823 190.813 113.265 191.804 108.31 192.102C103.355 192.398 98.0037 192.003 92.95 190.715C87.8958 189.426 83.1387 187.246 79.1749 184.869C75.2105 182.491 72.0396 179.915 69.364 177.239C66.6881 174.564 64.5073 171.79 62.8237 168.917C61.1393 166.044 59.9496 163.071 59.0577 160.693C58.1657 158.316 57.5714 156.532 57.2738 155.442C56.9761 154.353 56.9761 153.956 56.9761 153.56C43.895 153.362 30.8145 153.163 17.7334 152.965C17.7334 150.786 17.7334 148.605 17.7334 146.426C18.7246 146.625 19.7147 146.822 20.9044 146.525C22.0936 146.228 23.4807 145.435 25.0662 144.049C26.6517 142.662 28.4356 140.679 30.121 137.806C31.8057 134.933 33.3902 131.167 36.0661 124.925C38.7416 118.684 42.5079 109.965 48.2562 95.7973C54.0035 81.6287 61.7332 62.0112 69.4632 42.393Z" fill="white"/>
</mask>
<g mask="url(#mask1_13_240)">
<path fill-rule="evenodd" clip-rule="evenodd" d="M69.4632 42.393C71.8411 42.393 74.2194 42.393 76.5986 42.393C89.6797 78.26 102.76 114.127 109.895 132.853C117.03 151.578 118.22 153.163 119.607 154.452C120.994 155.739 122.58 156.73 124.066 157.424C125.553 158.117 126.94 158.514 127.931 158.712C128.922 158.911 129.517 158.911 130.112 158.911C130.309 160.892 130.508 162.873 130.706 164.854C115.643 164.854 100.58 164.854 85.5169 164.854C85.5169 162.675 85.5169 160.495 85.5169 158.316C87.3005 158.316 89.0844 158.316 91.0668 158.216C93.0482 158.117 95.2286 157.919 96.7159 157.225C98.2011 156.532 98.9949 155.343 98.7965 153.262C98.598 151.182 97.4084 148.209 92.057 133.644C86.7062 119.08 77.1929 92.9225 67.6793 66.7663C59.5527 87.5732 51.4272 108.38 46.8682 120.269C42.3105 132.158 41.3183 135.131 40.8232 137.311C40.3271 139.491 40.3271 140.877 40.6258 141.868C40.9224 142.859 41.5167 143.454 42.7063 144.049C43.8949 144.643 45.6789 145.237 47.3632 145.733C49.048 146.228 50.6345 146.625 51.9233 146.822C53.2112 147.02 54.202 147.02 55.1921 147.02C54.9947 142.265 54.7956 137.509 54.7956 132.852C54.7956 128.196 54.9947 123.638 55.589 119.873C56.1833 116.108 57.1745 113.135 57.8681 111.154C58.5626 109.172 58.9585 108.181 59.3553 107.191C64.9042 107.191 70.4541 107.191 76.0033 107.191C78.1838 112.344 80.3636 117.495 82.5444 122.647C82.5444 123.44 82.5444 124.233 82.5444 125.025C77.7879 125.025 73.0308 125.025 68.2736 125.025C68.2736 125.818 68.2736 126.61 69.067 128.393C69.8598 130.176 71.4442 132.952 72.4354 134.636C73.4266 136.321 73.8235 136.915 74.0209 138.599C74.2193 140.283 74.2194 143.058 74.7155 146.327C75.2106 149.596 76.2017 153.362 77.2921 156.632C78.3822 159.901 79.5718 162.675 81.4539 165.549C83.3371 168.421 85.9127 171.394 88.2917 173.773C90.6699 176.15 92.8507 177.933 95.2286 179.321C97.6078 180.707 100.184 181.698 102.561 182.292C104.941 182.887 107.12 183.085 109.499 183.085C111.878 183.085 114.453 182.887 117.328 182.292C120.202 181.698 123.373 180.707 126.147 179.321C128.922 177.933 131.301 176.15 133.58 173.673C135.859 171.196 138.039 168.026 139.725 165.053C141.409 162.08 142.598 159.307 143.786 156.532C143.589 160.892 143.391 165.251 142.896 169.314C142.399 173.376 141.607 177.14 138.138 180.509C134.67 183.878 128.526 186.85 123.174 188.831C117.823 190.813 113.265 191.804 108.31 192.102C103.355 192.398 98.0037 192.003 92.95 190.715C87.8958 189.426 83.1387 187.246 79.1749 184.869C75.2105 182.491 72.0396 179.915 69.364 177.239C66.6881 174.564 64.5073 171.79 62.8237 168.917C61.1393 166.044 59.9496 163.071 59.0577 160.693C58.1657 158.316 57.5714 156.532 57.2738 155.442C56.9761 154.353 56.9761 153.956 56.9761 153.56C43.895 153.362 30.8145 153.163 17.7334 152.965C17.7334 150.786 17.7334 148.605 17.7334 146.426C18.7246 146.625 19.7147 146.822 20.9044 146.525C22.0936 146.228 23.4807 145.435 25.0662 144.049C26.6517 142.662 28.4356 140.679 30.121 137.806C31.8057 134.933 33.3902 131.167 36.0661 124.925C38.7416 118.684 42.5079 109.965 48.2562 95.7973C54.0035 81.6287 61.7332 62.0112 69.4632 42.393Z" fill="url(#paint1_linear_13_240)"/>
</g>
</g>
<defs>
<linearGradient id="paint0_linear_13_240" x1="84.9162" y1="96.4853" x2="144.38" y2="96.4853" gradientUnits="userSpaceOnUse">
<stop stop-color="#DFBF68"/>
<stop offset="0.5" stop-color="#F6E280"/>
<stop offset="1" stop-color="#B38E3A"/>
</linearGradient>
<linearGradient id="paint1_linear_13_240" x1="17.7385" y1="117.311" x2="143.803" y2="117.311" gradientUnits="userSpaceOnUse">
<stop stop-color="#B89551"/>
<stop offset="0.12" stop-color="#D1B65F"/>
<stop offset="0.23" stop-color="#E9D073"/>
<stop offset="0.35" stop-color="#F8E888"/>
<stop offset="0.47" stop-color="#F3DA76"/>
<stop offset="0.56" stop-color="#E4C666"/>
<stop offset="0.65" stop-color="#DABB60"/>
<stop offset="0.77" stop-color="#C0A146"/>
<stop offset="0.89" stop-color="#B18B38"/>
<stop offset="1" stop-color="#DFBF68"/>
</linearGradient>
<clipPath id="clip0_13_240">
<rect width="162" height="245" fill="white"/>
</clipPath>
</defs>
</svg>
