<svg width="35" height="35" viewBox="0 0 35 35" fill="none" xmlns="http://www.w3.org/2000/svg">
<path d="M3.35433e-07 15.0582C3.35433e-07 15.7325 0.546635 16.2791 1.22093 16.2791C1.89523 16.2791 2.44186 15.7325 2.44186 15.0582H3.35433e-07ZM2.9685 23.4035C2.71047 22.7805 1.99625 22.4847 1.37329 22.7427C0.750319 23.0008 0.454479 23.7149 0.712519 24.3379L2.9685 23.4035ZM20.3197 33.4042L21.2022 31.9134L19.1007 30.6695L18.2182 32.1605L20.3197 33.4042ZM13.7978 31.9134L14.6803 33.4042L16.7816 32.1605L15.8991 30.6695L13.7978 31.9134ZM18.2182 32.1605C17.9045 32.6906 17.0955 32.6906 16.7816 32.1605L14.6803 33.4042C15.9397 35.5319 19.0603 35.5319 20.3197 33.4042L18.2182 32.1605ZM15.0581 2.44187H19.9419V3.35434e-07H15.0581V2.44187ZM32.5581 15.0582V16.6861H35V15.0582H32.5581ZM10.6669 27.6608C8.62312 27.6255 7.55223 27.4956 6.71282 27.1479L5.77837 29.4038C7.08879 29.9466 8.58132 30.067 10.6248 30.1022L10.6669 27.6608ZM0.712519 24.3379C1.66255 26.6315 3.4848 28.4538 5.77837 29.4038L6.71282 27.1479C5.01757 26.4456 3.6707 25.0988 2.9685 23.4035L0.712519 24.3379ZM32.5581 16.6861C32.5581 18.599 32.5575 19.9727 32.4836 21.0565C32.4103 22.1295 32.2693 22.8292 32.0315 23.4035L34.2875 24.3379C34.6692 23.4165 34.838 22.4201 34.9197 21.2227C35.0007 20.0365 35 18.5657 35 16.6861H32.5581ZM24.3751 30.1022C26.4187 30.067 27.9113 29.9466 29.2216 29.4038L28.2872 27.1479C27.4478 27.4956 26.3768 27.6255 24.3331 27.6608L24.3751 30.1022ZM32.0315 23.4035C31.3292 25.0988 29.9825 26.4456 28.2872 27.1479L29.2216 29.4038C31.5151 28.4538 33.3374 26.6315 34.2875 24.3379L32.0315 23.4035ZM19.9419 2.44187C22.6299 2.44187 24.5602 2.44315 26.0659 2.58631C27.5535 2.72774 28.4999 2.99899 29.2545 3.4614L30.5304 1.37936C29.3276 0.642325 27.9632 0.313845 26.297 0.155417C24.649 -0.00128578 22.5827 3.35434e-07 19.9419 3.35434e-07V2.44187ZM35 15.0582C35 12.4174 35.0013 10.3511 34.8445 8.70299C34.6861 7.03674 34.3576 5.67237 33.6207 4.46964L31.5386 5.74552C32.0011 6.5001 32.2723 7.44662 32.4137 8.93412C32.5568 10.4398 32.5581 12.3701 32.5581 15.0582H35ZM29.2545 3.4614C30.1855 4.03188 30.9682 4.81458 31.5386 5.74552L33.6207 4.46964C32.8489 3.21014 31.7899 2.15119 30.5304 1.37936L29.2545 3.4614ZM15.0581 3.35434e-07C12.4174 3.35434e-07 10.351 -0.00128578 8.70297 0.155417C7.03673 0.313845 5.67236 0.642325 4.46963 1.37936L5.7455 3.4614C6.50009 2.99899 7.4466 2.72774 8.9341 2.58631C10.4398 2.44315 12.3701 2.44187 15.0581 2.44187V3.35434e-07ZM2.44186 15.0582C2.44186 12.3701 2.44315 10.4398 2.58631 8.93412C2.72774 7.44662 2.99898 6.5001 3.46139 5.74552L1.37936 4.46964C0.642324 5.67237 0.313844 7.03674 0.155417 8.70299C-0.00128578 10.3511 3.35433e-07 12.4174 3.35433e-07 15.0582H2.44186ZM4.46963 1.37936C3.21014 2.15119 2.15118 3.21014 1.37936 4.46964L3.46139 5.74552C4.03187 4.81458 4.81457 4.03188 5.7455 3.4614L4.46963 1.37936ZM15.8991 30.6695C15.5687 30.1111 15.2786 29.6184 14.9964 29.2313C14.6992 28.8236 14.3585 28.4565 13.8858 28.1816L12.6581 30.2925C12.7353 30.3373 12.8405 30.4191 13.023 30.6695C13.2206 30.9407 13.4438 31.3153 13.7978 31.9134L15.8991 30.6695ZM10.6248 30.1022C11.3396 30.1146 11.7923 30.1237 12.1375 30.1618C12.46 30.1976 12.585 30.2498 12.6581 30.2925L13.8858 28.1816C13.4092 27.9043 12.9133 27.7909 12.4062 27.7347C11.9218 27.6812 11.3363 27.6724 10.6669 27.6608L10.6248 30.1022ZM21.2022 31.9134C21.5561 31.3153 21.7793 30.9407 21.9769 30.6695C22.1594 30.4191 22.2646 30.3373 22.3417 30.2925L21.1141 28.1816C20.6415 28.4565 20.3007 28.8236 20.0036 29.2313C19.7214 29.6184 19.4313 30.1111 19.1007 30.6695L21.2022 31.9134ZM24.3331 27.6608C23.6636 27.6724 23.0782 27.6812 22.5937 27.7347C22.0866 27.7909 21.5908 27.9043 21.1141 28.1816L22.3417 30.2925C22.415 30.2498 22.54 30.1976 22.8625 30.1618C23.2076 30.1237 23.6603 30.1146 24.3751 30.1022L24.3331 27.6608Z" fill="#D7C03A"/>
<path fill-rule="evenodd" clip-rule="evenodd" d="M9.8913 17.5C9.8913 16.6596 10.6067 15.9783 11.4891 15.9783H11.5035C12.386 15.9783 13.1013 16.6596 13.1013 17.5C13.1013 18.3404 12.386 19.0217 11.5035 19.0217H11.4891C10.6067 19.0217 9.8913 18.3404 9.8913 17.5ZM16.2682 17.5C16.2682 16.6596 16.9836 15.9783 17.866 15.9783H17.8804C18.7629 15.9783 19.4783 16.6596 19.4783 17.5C19.4783 18.3404 18.7629 19.0217 17.8804 19.0217H17.866C16.9836 19.0217 16.2682 18.3404 16.2682 17.5ZM22.6595 17.5C22.6595 16.6596 23.3749 15.9783 24.2573 15.9783H24.2717C25.1542 15.9783 25.8696 16.6596 25.8696 17.5C25.8696 18.3404 25.1542 19.0217 24.2717 19.0217H24.2573C23.3749 19.0217 22.6595 18.3404 22.6595 17.5Z" fill="#D7C03A"/>
</svg>
