<svg width="35" height="35" viewBox="0 0 35 35" fill="none" xmlns="http://www.w3.org/2000/svg">
<path d="M34.825 16.7178L29.575 6.21775C29.5017 6.07155 29.4048 5.9385 29.288 5.824C29.1258 5.64311 28.9272 5.49849 28.7052 5.39958C28.4833 5.30067 28.243 5.2497 28 5.25H19.25V1.75C19.25 1.28587 19.0656 0.840752 18.7374 0.512563C18.4092 0.184374 17.9641 0 17.5 0C17.0359 0 16.5908 0.184374 16.2626 0.512563C15.9344 0.840752 15.75 1.28587 15.75 1.75V5.25H7C6.75849 5.25092 6.51986 5.30249 6.29951 5.40136C6.07916 5.50023 5.882 5.64421 5.72075 5.824C5.60399 5.9385 5.50701 6.07155 5.43375 6.21775L0.18375 16.7178C0.0645692 16.9611 0.00460496 17.2291 0.0087502 17.5H0C0 19.3565 0.737498 21.137 2.05025 22.4497C3.36301 23.7625 5.14348 24.5 7 24.5C8.85652 24.5 10.637 23.7625 11.9497 22.4497C13.2625 21.137 14 19.3565 14 17.5H13.9825C13.9866 17.2291 13.9267 16.9611 13.8075 16.7178L9.8315 8.75H15.75V31.5H7C6.53587 31.5 6.09075 31.6844 5.76256 32.0126C5.43437 32.3408 5.25 32.7859 5.25 33.25C5.25 33.7141 5.43437 34.1592 5.76256 34.4874C6.09075 34.8156 6.53587 35 7 35H28C28.4641 35 28.9093 34.8156 29.2374 34.4874C29.5656 34.1592 29.75 33.7141 29.75 33.25C29.75 32.7859 29.5656 32.3408 29.2374 32.0126C28.9093 31.6844 28.4641 31.5 28 31.5H19.25V8.75H25.1685L21.1838 16.7178C21.0646 16.9611 21.0046 17.2291 21.0088 17.5H21C21 19.3565 21.7375 21.137 23.0503 22.4497C24.363 23.7625 26.1435 24.5 28 24.5C29.8565 24.5 31.637 23.7625 32.9497 22.4497C34.2625 21.137 35 19.3565 35 17.5H34.9825C34.9921 17.2305 34.9381 16.9625 34.825 16.7178ZM10.2935 17.5H3.7065L7 10.913L10.2935 17.5ZM24.7065 17.5L28 10.913L31.2935 17.5H24.7065Z" fill="#D7C03A"/>
</svg>
