<svg width="28" height="29" viewBox="0 0 28 29" fill="none" xmlns="http://www.w3.org/2000/svg">
<path d="M6.62659 8.56757C7.73387 8.56757 8.68705 8.76733 9.48612 9.16687C10.2966 9.55499 10.913 10.1086 11.3354 10.8278C11.7692 11.5355 11.9861 12.3689 11.9861 13.3277C11.9861 13.6588 11.9461 14.0755 11.8662 14.5777C11.6607 15.7535 11.2155 16.798 10.5306 17.7112C9.85712 18.6245 8.99526 19.3322 7.94506 19.8345C6.90626 20.3367 5.75902 20.5879 4.50334 20.5879H0L2.12325 8.56757H6.62659ZM4.76018 18.0879C5.86747 18.0879 6.7864 17.7797 7.51698 17.1633C8.24756 16.5469 8.70417 15.685 8.88682 14.5777C8.9439 14.2353 8.97243 13.9499 8.97243 13.7216C8.97243 12.8768 8.71559 12.2262 8.2019 11.7696C7.68821 11.3015 6.95763 11.0675 6.01016 11.0675H4.60608L3.37322 18.0879H4.76018Z" fill="white"/>
<path d="M24.5583 18.7869H20.0721L18.9762 20.9102H15.9112L22.3837 8.88983H25.774L28 20.9102H24.9008L24.5583 18.7869ZM24.2158 16.5609L23.5138 12.1089L21.2193 16.5609H24.2158Z" fill="white"/>
<path d="M23.9323 2.49353L10.0368 26.5659L7.65245 26.4845L21.5479 2.41215L23.9323 2.49353Z" fill="white"/>
</svg>
