<svg width="32" height="34" viewBox="0 0 32 34" fill="none" xmlns="http://www.w3.org/2000/svg">
<path fill-rule="evenodd" clip-rule="evenodd" d="M10.3478 0C9.95576 0 9.57977 0.155749 9.30253 0.432968L0.432968 9.30253C0.15575 9.57977 0 9.95576 0 10.3478V28.087C0 30.5363 1.98553 32.5217 4.43478 32.5217H7.3913C8.20772 32.5217 8.86957 31.8599 8.86957 31.0435C8.86957 30.227 8.20772 29.5652 7.3913 29.5652H4.43478C3.61837 29.5652 2.95652 28.9034 2.95652 28.087V11.8261H10.3478C11.1643 11.8261 11.8261 11.1642 11.8261 10.3478V2.95652H22.1739C22.9904 2.95652 23.6522 3.61837 23.6522 4.43478V8.86957C23.6522 9.68598 24.314 10.3478 25.1304 10.3478C25.9469 10.3478 26.6087 9.68598 26.6087 8.86957V4.43478C26.6087 1.98553 24.6232 0 22.1739 0H10.3478ZM8.86957 8.86957H5.04709L8.86957 5.04709V8.86957ZM13.3043 23.6522C13.3043 19.5701 16.6136 16.2609 20.6957 16.2609C24.7777 16.2609 28.087 19.5701 28.087 23.6522C28.087 27.7342 24.7777 31.0435 20.6957 31.0435C16.6136 31.0435 13.3043 27.7342 13.3043 23.6522ZM20.6957 13.3043C14.9807 13.3043 10.3478 17.9372 10.3478 23.6522C10.3478 29.3671 14.9807 34 20.6957 34C26.4106 34 31.0435 29.3671 31.0435 23.6522C31.0435 17.9372 26.4106 13.3043 20.6957 13.3043ZM20.0374 19.4656C19.5837 19.1633 19.0005 19.1351 18.5198 19.3923C18.0392 19.6495 17.7391 20.1505 17.7391 20.6957V26.6087C17.7391 27.1539 18.0392 27.6549 18.5198 27.9121C19.0005 28.1693 19.5837 28.1411 20.0374 27.8388L24.4722 24.8822C24.8834 24.608 25.1304 24.1465 25.1304 23.6522C25.1304 23.1578 24.8834 22.6963 24.4722 22.4221L20.0374 19.4656Z" fill="#D7C03A"/>
</svg>
