<svg width="27" height="33" viewBox="0 0 27 33" fill="none" xmlns="http://www.w3.org/2000/svg">
<path fill-rule="evenodd" clip-rule="evenodd" d="M9.43933 0.439335C9.72064 0.15804 10.1022 0 10.5 0H22.5C24.9853 0 27 2.01472 27 4.5V28.5C27 30.9853 24.9853 33 22.5 33H4.5C2.01472 33 0 30.9853 0 28.5V10.5C0 10.1022 0.15804 9.72064 0.439335 9.43933L9.43933 0.439335ZM22.5 3H12V10.5C12 11.3284 11.3285 12 10.5 12H3V28.5C3 29.3284 3.67158 30 4.5 30H22.5C23.3284 30 24 29.3284 24 28.5V4.5C24 3.67158 23.3284 3 22.5 3ZM5.12132 9H9V5.12132L5.12132 9ZM6 18C6 17.1716 6.67158 16.5 7.5 16.5H19.5C20.3284 16.5 21 17.1716 21 18C21 18.8284 20.3284 19.5 19.5 19.5H7.5C6.67158 19.5 6 18.8284 6 18ZM6 24C6 23.1716 6.67158 22.5 7.5 22.5H19.5C20.3284 22.5 21 23.1716 21 24C21 24.8284 20.3284 25.5 19.5 25.5H7.5C6.67158 25.5 6 24.8284 6 24Z" fill="#D7C03A"/>
</svg>
