<svg width="24" height="42" viewBox="0 0 24 42" fill="none" xmlns="http://www.w3.org/2000/svg">
<path fill-rule="evenodd" clip-rule="evenodd" d="M21 6.5625H2.625V5.25C2.625 3.801 3.801 2.625 5.25 2.625H18.375C19.824 2.625 21 3.801 21 5.25V6.5625ZM2.625 9.1875H21V26.25H2.625V9.1875ZM21 36.75C21 38.199 19.824 39.375 18.375 39.375H5.25C3.801 39.375 2.625 38.199 2.625 36.75V28.875H21V36.75ZM18.375 0H5.25C2.35069 0 0 2.35069 0 5.25V36.75C0 39.6493 2.35069 42 5.25 42H18.375C21.2743 42 23.625 39.6493 23.625 36.75V5.25C23.625 2.35069 21.2743 0 18.375 0ZM11.8125 36.75C13.2615 36.75 14.4375 35.574 14.4375 34.125C14.4375 32.676 13.2615 31.5 11.8125 31.5C10.3635 31.5 9.1875 32.676 9.1875 34.125C9.1875 35.574 10.3635 36.75 11.8125 36.75Z" fill="#D7C03A"/>
</svg>
